ffmpeg started on 2025-05-05 at 19:39:25
Report written to "D:\Convert\FFMetrics\reports\ssim_report-6.txt"
Log level: 32
Command line:
ffmpeg -hide_banner -nostdin -i "G:\\\xc0\xed\xe8\xec\xe5\\\xce\xed\xe3\xee\xe8\xed\xe3\xe8\\!_35_\xcb\xe5\xf2\xee_2024\\JamClub\\\xdf \xef\xe0\xf0\xe8\xf0\xee\xe2\xe0\xeb \xe2\xf1\xb8 \xe2\xf0\xe5\xec\xff, \xf7\xf2\xee\xe1\xfb \xf1\xf2\xe0\xf2\xfc \xf1\xe8\xeb\xfc\xed\xe5\xe9\xf8\xe8\xec \xe0\xe2\xe0\xed\xf2\xfe\xf0\xe8\xf1\xf2\xee\xec\\JamClub_I_Parry_Everything_04_1080p_HEVC.mkv" -i "G:\\\xc0\xed\xe8\xec\xe5\\\xce\xed\xe3\xee\xe8\xed\xe3\xe8\\!_35_\xcb\xe5\xf2\xee_2024\\JamClub\\\xdf \xef\xe0\xf0\xe8\xf0\xee\xe2\xe0\xeb \xe2\xf1\xb8 \xe2\xf0\xe5\xec\xff, \xf7\xf2\xee\xe1\xfb \xf1\xf2\xe0\xf2\xfc \xf1\xe8\xeb\xfc\xed\xe5\xe9\xf8\xe8\xec \xe0\xe2\xe0\xed\xf2\xfe\xf0\xe8\xf1\xf2\xee\xec\\JamClub_I_Parry_Everything_04_1080p.mp4" -lavfi "[0:v]settb=AVTB,setpts=PTS-STARTPTS,format=pix_fmts=yuv420p10,fps=24000/1001,scale=1920:1080:flags=bicubic[main];[1:v]settb=AVTB,setpts=PTS-STARTPTS,format=pix_fmts=yuv420p,fps=24000/1001,scale=1920:1080:flags=bicubic[ref];[main][ref]ssim=eof_action=endall:stats_file='D\\:/Convert/FFMetrics/logs/ssim_logfile-6.txt'" -f null -
Input #0, matroska,webm, from 'G:\Аниме\Онгоинги\!_35_Лето_2024\JamClub\Я парировал всё время, чтобы стать сильнейшим авантюристом\JamClub_I_Parry_Everything_04_1080p_HEVC.mkv':
  Metadata:
    COMPATIBLE_BRANDS: isomiso2avc1mp41
    MAJOR_BRAND     : isom
    MINOR_VERSION   : 512
    ENCODER         : Lavf61.7.100
  Duration: 00:24:04.69, start: -0.001000, bitrate: 1323 kb/s
  Stream #0:0: Video: hevc (Main 10), yuv420p10le(tv, bt709, progressive), 1920x1080 [SAR 1:1 DAR 16:9], 23.98 fps, 23.98 tbr, 1k tbn (default)
      Metadata:
        HANDLER_NAME    : VideoHandler
        VENDOR_ID       : [0][0][0][0]
        ENCODER         : Lavc61.19.100 libx265
        BPS             : 1125174
        DURATION        : 00:24:04.609708333
        NUMBER_OF_FRAMES: 34636
        NUMBER_OF_BYTES : 203179709
        _STATISTICS_WRITING_APP: mkvpropedit v66.0.0 ('Josie') 64-bit
        _STATISTICS_WRITING_DATE_UTC: 2025-05-05 10:20:40
        _STATISTICS_TAGS: BPS DURATION NUMBER_OF_FRAMES NUMBER_OF_BYTES
  Stream #0:1(eng): Audio: aac (LC), 48000 Hz, stereo, fltp (default)
      Metadata:
        HANDLER_NAME    : SoundHandler
        VENDOR_ID       : [0][0][0][0]
        ENCODER         : Lavc61.19.100 aac
        BPS             : 194303
        DURATION        : 00:24:04.653000000
        NUMBER_OF_FRAMES: 67719
        NUMBER_OF_BYTES : 35087613
        _STATISTICS_WRITING_APP: mkvpropedit v66.0.0 ('Josie') 64-bit
        _STATISTICS_WRITING_DATE_UTC: 2025-05-05 10:20:40
        _STATISTICS_TAGS: BPS DURATION NUMBER_OF_FRAMES NUMBER_OF_BYTES
Input #1, mov,mp4,m4a,3gp,3g2,mj2, from 'G:\Аниме\Онгоинги\!_35_Лето_2024\JamClub\Я парировал всё время, чтобы стать сильнейшим авантюристом\JamClub_I_Parry_Everything_04_1080p.mp4':
  Metadata:
    major_brand     : isom
    minor_version   : 512
    compatible_brands: isomiso2avc1mp41
    encoder         : Lavf60.16.100
  Duration: 00:24:04.67, start: 0.000000, bitrate: 4768 kb/s
  Stream #1:0[0x1](und): Video: h264 (High) (avc1 / 0x31637661), yuv420p(progressive), 1920x1080 [SAR 1:1 DAR 16:9], 4570 kb/s, 23.98 fps, 23.98 tbr, 90k tbn (default)
      Metadata:
        handler_name    : VideoHandler
        vendor_id       : [0][0][0][0]
  Stream #1:1[0x2](eng): Audio: aac (LC) (mp4a / 0x6134706D), 48000 Hz, stereo, fltp, 191 kb/s (default)
      Metadata:
        handler_name    : SoundHandler
        vendor_id       : [0][0][0][0]
Stream mapping:
  Stream #0:0 (hevc) -> settb:default
  Stream #1:0 (h264) -> settb:default
  ssim:default -> Stream #0:0 (wrapped_avframe)
  Stream #0:1 -> #0:1 (aac (native) -> pcm_s16le (native))
Output #0, null, to 'pipe:':
  Metadata:
    COMPATIBLE_BRANDS: isomiso2avc1mp41
    MAJOR_BRAND     : isom
    MINOR_VERSION   : 512
    encoder         : Lavf61.7.100
  Stream #0:0: Video: wrapped_avframe, yuv420p10le(tv, bt709, progressive), 1920x1080 [SAR 1:1 DAR 16:9], q=2-31, 200 kb/s, 23.98 fps, 23.98 tbn
      Metadata:
        encoder         : Lavc61.19.100 wrapped_avframe
  Stream #0:1(eng): Audio: pcm_s16le, 48000 Hz, stereo, s16, 1536 kb/s (default)
      Metadata:
        HANDLER_NAME    : SoundHandler
        VENDOR_ID       : [0][0][0][0]
        _STATISTICS_TAGS: BPS DURATION NUMBER_OF_FRAMES NUMBER_OF_BYTES
        BPS             : 194303
        DURATION        : 00:24:04.653000000
        NUMBER_OF_FRAMES: 67719
        NUMBER_OF_BYTES : 35087613
        _STATISTICS_WRITING_APP: mkvpropedit v66.0.0 ('Josie') 64-bit
        _STATISTICS_WRITING_DATE_UTC: 2025-05-05 10:20:40
        encoder         : Lavc61.19.100 pcm_s16le
frame=  112 fps=0.0 q=-0.0 size=N/A time=00:00:04.67 bitrate=N/A speed= 8.9x    frame=  269 fps=261 q=-0.0 size=N/A time=00:00:11.21 bitrate=N/A speed=10.9x    frame=  464 fps=298 q=-0.0 size=N/A time=00:00:19.35 bitrate=N/A speed=12.4x    frame=  691 fps=335 q=-0.0 size=N/A time=00:00:28.82 bitrate=N/A speed=  14x    frame=  932 fps=360 q=-0.0 size=N/A time=00:00:38.87 bitrate=N/A speed=  15x    frame= 1136 fps=367 q=-0.0 size=N/A time=00:00:47.38 bitrate=N/A speed=15.3x    frame= 1343 fps=371 q=-0.0 size=N/A time=00:00:56.01 bitrate=N/A speed=15.5x    frame= 1574 fps=382 q=-0.0 size=N/A time=00:01:05.64 bitrate=N/A speed=15.9x    frame= 1812 fps=391 q=-0.0 size=N/A time=00:01:15.57 bitrate=N/A speed=16.3x    frame= 2065 fps=400 q=-0.0 size=N/A time=00:01:26.12 bitrate=N/A speed=16.7x    frame= 2315 fps=408 q=-0.0 size=N/A time=00:01:36.55 bitrate=N/A speed=  17x    frame= 2570 fps=415 q=-0.0 size=N/A time=00:01:47.19 bitrate=N/A speed=17.3x    frame= 2797 fps=417 q=-0.0 size=N/A time=00:01:56.65 bitrate=N/A speed=17.4x    frame= 3053 fps=423 q=-0.0 size=N/A time=00:02:07.33 bitrate=N/A speed=17.6x    frame= 3322 fps=430 q=-0.0 size=N/A time=00:02:18.55 bitrate=N/A speed=17.9x    frame= 3574 fps=433 q=-0.0 size=N/A time=00:02:29.06 bitrate=N/A speed=18.1x    frame= 3836 fps=438 q=-0.0 size=N/A time=00:02:39.99 bitrate=N/A speed=18.3x    frame= 4045 fps=436 q=-0.0 size=N/A time=00:02:48.71 bitrate=N/A speed=18.2x    frame= 4279 fps=436 q=-0.0 size=N/A time=00:02:58.46 bitrate=N/A speed=18.2x    frame= 4481 fps=434 q=-0.0 size=N/A time=00:03:06.89 bitrate=N/A speed=18.1x    frame= 4655 fps=429 q=-0.0 size=N/A time=00:03:14.15 bitrate=N/A speed=17.9x    frame= 4824 fps=425 q=-0.0 size=N/A time=00:03:21.20 bitrate=N/A speed=17.7x    frame= 5042 fps=424 q=-0.0 size=N/A time=00:03:30.29 bitrate=N/A speed=17.7x    frame= 5228 fps=422 q=-0.0 size=N/A time=00:03:38.05 bitrate=N/A speed=17.6x    frame= 5394 fps=418 q=-0.0 size=N/A time=00:03:44.97 bitrate=N/A speed=17.4x    frame= 5539 fps=412 q=-0.0 size=N/A time=00:03:51.02 bitrate=N/A speed=17.2x    frame= 5689 fps=408 q=-0.0 size=N/A time=00:03:57.27 bitrate=N/A speed=  17x    frame= 5937 fps=411 q=-0.0 size=N/A time=00:04:07.62 bitrate=N/A speed=17.1x    frame= 6144 fps=411 q=-0.0 size=N/A time=00:04:16.25 bitrate=N/A speed=17.1x    frame= 6419 fps=414 q=-0.0 size=N/A time=00:04:27.72 bitrate=N/A speed=17.3x    frame= 6674 fps=417 q=-0.0 size=N/A time=00:04:38.36 bitrate=N/A speed=17.4x    frame= 6942 fps=420 q=-0.0 size=N/A time=00:04:49.53 bitrate=N/A speed=17.5x    frame= 7183 fps=422 q=-0.0 size=N/A time=00:04:59.59 bitrate=N/A speed=17.6x    frame= 7431 fps=423 q=-0.0 size=N/A time=00:05:09.93 bitrate=N/A speed=17.7x    frame= 7686 fps=425 q=-0.0 size=N/A time=00:05:20.57 bitrate=N/A speed=17.7x    frame= 7956 fps=428 q=-0.0 size=N/A time=00:05:31.83 bitrate=N/A speed=17.9x    frame= 8227 fps=431 q=-0.0 size=N/A time=00:05:43.13 bitrate=N/A speed=  18x    frame= 8483 fps=433 q=-0.0 size=N/A time=00:05:53.81 bitrate=N/A speed=  18x    frame= 8738 fps=434 q=-0.0 size=N/A time=00:06:04.44 bitrate=N/A speed=18.1x    frame= 9024 fps=437 q=-0.0 size=N/A time=00:06:16.37 bitrate=N/A speed=18.2x    frame= 9285 fps=439 q=-0.0 size=N/A time=00:06:27.26 bitrate=N/A speed=18.3x    frame= 9555 fps=441 q=-0.0 size=N/A time=00:06:38.52 bitrate=N/A speed=18.4x    frame= 9836 fps=443 q=-0.0 size=N/A time=00:06:50.24 bitrate=N/A speed=18.5x    frame=10101 fps=445 q=-0.0 size=N/A time=00:07:01.29 bitrate=N/A speed=18.5x    frame=10395 fps=447 q=-0.0 size=N/A time=00:07:13.55 bitrate=N/A speed=18.7x    frame=10669 fps=449 q=-0.0 size=N/A time=00:07:24.98 bitrate=N/A speed=18.7x    frame=10880 fps=448 q=-0.0 size=N/A time=00:07:33.78 bitrate=N/A speed=18.7x    frame=11097 fps=448 q=-0.0 size=N/A time=00:07:42.83 bitrate=N/A speed=18.7x    frame=11297 fps=447 q=-0.0 size=N/A time=00:07:51.17 bitrate=N/A speed=18.6x    frame=11511 fps=446 q=-0.0 size=N/A time=00:08:00.10 bitrate=N/A speed=18.6x    frame=11727 fps=445 q=-0.0 size=N/A time=00:08:09.11 bitrate=N/A speed=18.6x    frame=11948 fps=445 q=-0.0 size=N/A time=00:08:18.33 bitrate=N/A speed=18.6x    frame=12171 fps=445 q=-0.0 size=N/A time=00:08:27.63 bitrate=N/A speed=18.5x    frame=12444 fps=446 q=-0.0 size=N/A time=00:08:39.01 bitrate=N/A speed=18.6x    frame=12681 fps=446 q=-0.0 size=N/A time=00:08:48.90 bitrate=N/A speed=18.6x    frame=12892 fps=446 q=-0.0 size=N/A time=00:08:57.70 bitrate=N/A speed=18.6x    frame=13102 fps=445 q=-0.0 size=N/A time=00:09:06.46 bitrate=N/A speed=18.6x    frame=13326 fps=445 q=-0.0 size=N/A time=00:09:15.80 bitrate=N/A speed=18.6x    frame=13568 fps=445 q=-0.0 size=N/A time=00:09:25.89 bitrate=N/A speed=18.6x    frame=13808 fps=446 q=-0.0 size=N/A time=00:09:35.90 bitrate=N/A speed=18.6x    frame=14049 fps=446 q=-0.0 size=N/A time=00:09:45.96 bitrate=N/A speed=18.6x    frame=14285 fps=446 q=-0.0 size=N/A time=00:09:55.80 bitrate=N/A speed=18.6x    frame=14511 fps=446 q=-0.0 size=N/A time=00:10:05.22 bitrate=N/A speed=18.6x    frame=14751 fps=447 q=-0.0 size=N/A time=00:10:15.23 bitrate=N/A speed=18.6x    frame=15020 fps=448 q=-0.0 size=N/A time=00:10:26.45 bitrate=N/A speed=18.7x    frame=15277 fps=449 q=-0.0 size=N/A time=00:10:37.17 bitrate=N/A speed=18.7x    frame=15522 fps=449 q=-0.0 size=N/A time=00:10:47.39 bitrate=N/A speed=18.7x    frame=15750 fps=449 q=-0.0 size=N/A time=00:10:56.90 bitrate=N/A speed=18.7x    frame=15972 fps=448 q=-0.0 size=N/A time=00:11:06.16 bitrate=N/A speed=18.7x    frame=16206 fps=449 q=-0.0 size=N/A time=00:11:15.92 bitrate=N/A speed=18.7x    frame=16439 fps=449 q=-0.0 size=N/A time=00:11:25.64 bitrate=N/A speed=18.7x    frame=16670 fps=449 q=-0.0 size=N/A time=00:11:35.27 bitrate=N/A speed=18.7x    frame=16905 fps=449 q=-0.0 size=N/A time=00:11:45.07 bitrate=N/A speed=18.7x    frame=17113 fps=448 q=-0.0 size=N/A time=00:11:53.75 bitrate=N/A speed=18.7x    frame=17365 fps=449 q=-0.0 size=N/A time=00:12:04.26 bitrate=N/A speed=18.7x    frame=17598 fps=449 q=-0.0 size=N/A time=00:12:13.98 bitrate=N/A speed=18.7x    frame=17808 fps=448 q=-0.0 size=N/A time=00:12:22.74 bitrate=N/A speed=18.7x    frame=18021 fps=448 q=-0.0 size=N/A time=00:12:31.62 bitrate=N/A speed=18.7x    frame=18261 fps=448 q=-0.0 size=N/A time=00:12:41.63 bitrate=N/A speed=18.7x    frame=18490 fps=448 q=-0.0 size=N/A time=00:12:51.18 bitrate=N/A speed=18.7x    frame=18662 fps=446 q=-0.0 size=N/A time=00:12:58.36 bitrate=N/A speed=18.6x    frame=18921 fps=447 q=-0.0 size=N/A time=00:13:09.16 bitrate=N/A speed=18.6x    frame=19140 fps=447 q=-0.0 size=N/A time=00:13:18.33 bitrate=N/A speed=18.6x    frame=19374 fps=447 q=-0.0 size=N/A time=00:13:28.05 bitrate=N/A speed=18.6x    frame=19576 fps=446 q=-0.0 size=N/A time=00:13:36.48 bitrate=N/A speed=18.6x    frame=19768 fps=445 q=-0.0 size=N/A time=00:13:44.49 bitrate=N/A speed=18.6x    frame=19977 fps=445 q=-0.0 size=N/A time=00:13:53.20 bitrate=N/A speed=18.6x    frame=20188 fps=445 q=-0.0 size=N/A time=00:14:02.00 bitrate=N/A speed=18.5x    frame=20368 fps=443 q=-0.0 size=N/A time=00:14:09.51 bitrate=N/A speed=18.5x    frame=20568 fps=443 q=-0.0 size=N/A time=00:14:17.85 bitrate=N/A speed=18.5x    frame=20781 fps=443 q=-0.0 size=N/A time=00:14:26.74 bitrate=N/A speed=18.5x    frame=21003 fps=442 q=-0.0 size=N/A time=00:14:36.00 bitrate=N/A speed=18.5x    frame=21210 fps=442 q=-0.0 size=N/A time=00:14:44.63 bitrate=N/A speed=18.4x    frame=21438 fps=442 q=-0.0 size=N/A time=00:14:54.14 bitrate=N/A speed=18.4x    frame=21680 fps=442 q=-0.0 size=N/A time=00:15:04.23 bitrate=N/A speed=18.4x    frame=21886 fps=442 q=-0.0 size=N/A time=00:15:12.82 bitrate=N/A speed=18.4x    frame=22079 fps=441 q=-0.0 size=N/A time=00:15:20.87 bitrate=N/A speed=18.4x    frame=22311 fps=441 q=-0.0 size=N/A time=00:15:30.55 bitrate=N/A speed=18.4x    frame=22564 fps=442 q=-0.0 size=N/A time=00:15:41.10 bitrate=N/A speed=18.4x    frame=22798 fps=442 q=-0.0 size=N/A time=00:15:50.86 bitrate=N/A speed=18.4x    frame=23046 fps=442 q=-0.0 size=N/A time=00:16:01.21 bitrate=N/A speed=18.4x    frame=23268 fps=442 q=-0.0 size=N/A time=00:16:10.46 bitrate=N/A speed=18.4x    frame=23516 fps=443 q=-0.0 size=N/A time=00:16:20.81 bitrate=N/A speed=18.5x    frame=23764 fps=443 q=-0.0 size=N/A time=00:16:31.15 bitrate=N/A speed=18.5x    frame=23946 fps=442 q=-0.0 size=N/A time=00:16:38.74 bitrate=N/A speed=18.4x    frame=24136 fps=441 q=-0.0 size=N/A time=00:16:46.67 bitrate=N/A speed=18.4x    frame=24295 fps=440 q=-0.0 size=N/A time=00:16:53.30 bitrate=N/A speed=18.4x    frame=24493 fps=440 q=-0.0 size=N/A time=00:17:01.56 bitrate=N/A speed=18.3x    frame=24723 fps=440 q=-0.0 size=N/A time=00:17:11.15 bitrate=N/A speed=18.3x    frame=24928 fps=439 q=-0.0 size=N/A time=00:17:19.70 bitrate=N/A speed=18.3x    frame=25158 fps=439 q=-0.0 size=N/A time=00:17:29.29 bitrate=N/A speed=18.3x    frame=25408 fps=440 q=-0.0 size=N/A time=00:17:39.72 bitrate=N/A speed=18.3x    frame=25655 fps=440 q=-0.0 size=N/A time=00:17:50.02 bitrate=N/A speed=18.4x    frame=25893 fps=440 q=-0.0 size=N/A time=00:17:59.95 bitrate=N/A speed=18.4x    frame=26082 fps=440 q=-0.0 size=N/A time=00:18:07.83 bitrate=N/A speed=18.3x    frame=26294 fps=439 q=-0.0 size=N/A time=00:18:16.67 bitrate=N/A speed=18.3x    frame=26533 fps=439 q=-0.0 size=N/A time=00:18:26.64 bitrate=N/A speed=18.3x    frame=26750 fps=439 q=-0.0 size=N/A time=00:18:35.69 bitrate=N/A speed=18.3x    frame=26986 fps=439 q=-0.0 size=N/A time=00:18:45.54 bitrate=N/A speed=18.3x    frame=27242 fps=440 q=-0.0 size=N/A time=00:18:56.21 bitrate=N/A speed=18.3x    frame=27503 fps=440 q=-0.0 size=N/A time=00:19:07.10 bitrate=N/A speed=18.4x    frame=27780 fps=441 q=-0.0 size=N/A time=00:19:18.65 bitrate=N/A speed=18.4x    frame=28038 fps=442 q=-0.0 size=N/A time=00:19:29.41 bitrate=N/A speed=18.4x    frame=28290 fps=442 q=-0.0 size=N/A time=00:19:39.92 bitrate=N/A speed=18.4x    frame=28565 fps=443 q=-0.0 size=N/A time=00:19:51.39 bitrate=N/A speed=18.5x    frame=28850 fps=444 q=-0.0 size=N/A time=00:20:03.28 bitrate=N/A speed=18.5x    frame=29105 fps=444 q=-0.0 size=N/A time=00:20:13.92 bitrate=N/A speed=18.5x    frame=29377 fps=445 q=-0.0 size=N/A time=00:20:25.26 bitrate=N/A speed=18.5x    frame=29640 fps=445 q=-0.0 size=N/A time=00:20:36.23 bitrate=N/A speed=18.6x    frame=29885 fps=445 q=-0.0 size=N/A time=00:20:46.45 bitrate=N/A speed=18.6x    frame=30150 fps=446 q=-0.0 size=N/A time=00:20:57.50 bitrate=N/A speed=18.6x    frame=30400 fps=446 q=-0.0 size=N/A time=00:21:07.93 bitrate=N/A speed=18.6x    frame=30675 fps=447 q=-0.0 size=N/A time=00:21:19.40 bitrate=N/A speed=18.6x    frame=30955 fps=448 q=-0.0 size=N/A time=00:21:31.08 bitrate=N/A speed=18.7x    frame=31238 fps=448 q=-0.0 size=N/A time=00:21:42.88 bitrate=N/A speed=18.7x    frame=31508 fps=449 q=-0.0 size=N/A time=00:21:54.14 bitrate=N/A speed=18.7x    frame=31778 fps=449 q=-0.0 size=N/A time=00:22:05.40 bitrate=N/A speed=18.7x    frame=32039 fps=450 q=-0.0 size=N/A time=00:22:16.29 bitrate=N/A speed=18.8x    frame=32292 fps=450 q=-0.0 size=N/A time=00:22:26.84 bitrate=N/A speed=18.8x    frame=32539 fps=450 q=-0.0 size=N/A time=00:22:37.14 bitrate=N/A speed=18.8x    frame=32781 fps=450 q=-0.0 size=N/A time=00:22:47.24 bitrate=N/A speed=18.8x    frame=32948 fps=450 q=-0.0 size=N/A time=00:22:54.20 bitrate=N/A speed=18.7x    frame=33140 fps=449 q=-0.0 size=N/A time=00:23:02.21 bitrate=N/A speed=18.7x    frame=33366 fps=449 q=-0.0 size=N/A time=00:23:11.64 bitrate=N/A speed=18.7x    frame=33548 fps=448 q=-0.0 size=N/A time=00:23:19.23 bitrate=N/A speed=18.7x    frame=33743 fps=448 q=-0.0 size=N/A time=00:23:27.36 bitrate=N/A speed=18.7x    frame=33889 fps=447 q=-0.0 size=N/A time=00:23:33.45 bitrate=N/A speed=18.6x    frame=34095 fps=446 q=-0.0 size=N/A time=00:23:42.04 bitrate=N/A speed=18.6x    frame=34296 fps=446 q=-0.0 size=N/A time=00:23:50.42 bitrate=N/A speed=18.6x    frame=34486 fps=446 q=-0.0 size=N/A time=00:23:58.35 bitrate=N/A speed=18.6x    [Parsed_ssim_10 @ 00000266b34d5600] SSIM Y:0.993769 (22.054090) U:0.994619 (22.691240) V:0.994891 (22.916835) All:0.994097 (22.289537)
[out#0/null @ 00000266ac9222c0] video:14883KiB audio:270876KiB subtitle:0KiB other streams:0KiB global headers:0KiB muxing overhead: unknown
frame=34636 fps=445 q=-0.0 Lsize=N/A time=00:24:04.60 bitrate=N/A speed=18.6x    
